<svg width="184" height="184" viewBox="0 0 184 184" fill="none" xmlns="http://www.w3.org/2000/svg">
<path d="M106.745 71.365H77.3047V184H106.745V71.365Z" fill="#07649B"/>
<path d="M72.3986 71.365H15.9473V184H72.3986V71.365Z" fill="#07649B"/>
<path d="M168.055 71.365H111.652V184H168.055V71.365Z" fill="#07649B"/>
<path d="M119.894 0C105.849 0 94.4531 11.5482 94.4531 25.7814H145.335C145.335 11.5358 133.94 0 119.894 0Z" fill="#07649B"/>
<path d="M64.1071 0C50.0618 0 38.666 11.5482 38.666 25.7814H89.5482C89.5482 11.5358 78.1525 0 64.1071 0Z" fill="#07649B"/>
<path d="M106.745 33.2399H77.3047V63.0736H106.745V33.2399Z" fill="#07649B"/>
<path d="M72.398 33.2399H0V63.0736H72.398V33.2399Z" fill="#07649B"/>
<path d="M183.999 33.2399H111.65V63.0736H183.999V33.2399Z" fill="#07649B"/>
</svg>
