<svg width="185" height="184" viewBox="0 0 185 184" fill="none" xmlns="http://www.w3.org/2000/svg">
<path d="M180.323 4.65305C174.104 -1.55102 164.026 -1.55102 157.816 4.65305L125.409 36.9852L10.9654 10.78L0.980469 20.742V21.259L84.1006 78.1913L47.7727 114.443C47.7727 114.443 47.5639 114.636 47.2004 115.007L9.27933 106.295L1.30531 114.243L32.3274 135.324C28.4603 142.477 25.034 151.159 23.7037 160.912C33.5262 159.577 42.2659 156.128 49.4511 152.254L70.9059 183.676L78.8799 175.72L69.9855 137.199C70.1789 137.007 70.2872 136.891 70.2872 136.891L106.692 100.569L164.104 184H164.622L174.607 174.038L148.187 59.1933L148.102 59.255L180.323 27.1081C186.533 20.904 186.533 10.8494 180.323 4.65305Z" fill="#00827E"/>
</svg>
